<svg class="logo-jenkins" viewBox="682 209 74 102" xmlns="http://www.w3.org/2000/svg">
    <g fill-rule="evenodd" fill="#ddd">
        <path d="M720.9732086 224.5510058c-3.6167197-.8423567-5.4138535 1.513535-6.5101513 3.9570063-.9789012-.2372611-.589371-1.5684713-.3421178-2.2468153.6473726-1.7802547 3.25625-4.1500796 5.3878981-3.8288216.9173169.1381369 2.1586783.9769108 1.464371 2.1186306m17.6219347 4.1186305c.0569268.0023886.1146497.004379.1715764.0067675.8172771 1.6978504 1.5246816 3.4964172 2.5557325 4.995223-.6906847 1.6086783-5.2300955 3.0322452-5.1600318.1437102.9816879-.4291402 2.6763535-.0875796 3.5465764-.6357484-.5031847-1.3809714-1.2292993-2.5565287-1.1138535-4.5099523m-15.7703025.0441879c.7754777 1.4215765 1.0278662 2.915207 2.1301751 3.9896497.4964172.4836784 1.4617835 1.0732484.9832803 2.4183917-.1118631.3172771-.9291401 1.0246816-1.4008758 1.1636147-1.723328.5087579-5.7389331.1050955-4.3790605-2.0433917 1.425199.0664809 3.3408439.9255573 4.4061305-.1090765-.8180732-1.3077229-2.2765127-3.8949044-1.7396496-5.4191879m15.1234076 14.4482484c-2.5947452 1.6667994-5.4880573 3.4792994-9.7396497 3.0589172-.9084395-.7898089-1.254777-2.5473726-.3722133-3.7082006.4593949.7898089.1707802 2.2424363 1.451035 2.4609873 2.4124204.4128184 5.2201433-1.4757166 6.955414-2.1357484 1.076035-1.8140924-.0927548-2.4812899-1.0621019-3.6488854-1.9844745-2.3921178-4.6464968-5.357086-4.5497612-8.9382962.8021497-.5816083.8714172.8877389.986465 1.1552548 1.0362261 2.4251592 3.6441083 5.526672 5.5473726 7.6023089.4673567.5111465 1.2368631 1.0015924 1.3224522 1.3395701.2468153.9828821-.6421178 2.1604299-.5390127 2.8140923m-34.2071656-1.754777c-.8132962-.464172-1.0068869-2.508758-1.9617038-2.566879-1.3645303-.0828026-1.1157245 2.6524681-1.1102707 4.2519904-.9392516-.852707-1.1044188-3.4781051-.4144108-4.8264331-.7863854-.3861465-1.1375399.4259554-1.5737262.7121815.5605892-4.0724522 5.9573647-1.8889331 5.0601115 2.4291402m35.8592357 3.4506369c-1.2078026 2.298965-2.9164013 4.8308121-6.4605892 4.9044586-.0720541-.7424363-.1273885-1.8722134.0039809-2.3192675 2.7093949-.2603503 4.3821656-1.6393312 6.4566083-2.5851911m-16.9798567 1.4904459c2.2605095 1.1886942 6.4149681 1.3164809 9.4874204 1.2265127.1648089.6731688.160828 1.5047771.1671974 2.325637-3.9494427.1970541-8.6190286-.7802548-9.6546178-3.5521497m-.4296577 2.2165605c1.5631768 3.9247611 6.9357883 3.4729299 11.4664411 3.3646497-.1994427.5095541-.6317675 1.1114649-1.1691879 1.3292197-1.4518312.5907643-5.4562102 1.0390127-7.4717356-.031449-1.2782644-.6795383-2.0995223-2.2149682-2.7998806-3.1150478-.3382166-.4347134-2.0223328-1.5449841-.025637-1.5473726M747.6305732 281.5060615c-2.053742.4111465-3.4968152 2.4071656-5.500398 2.2790605 1.1011146-1.5522691 3.0306528-2.2066083 5.500398-2.2790605m.906051 3.2140923c-1.673965.1767914-3.6401274.4478504-5.3379777.3082007.803742-1.227707 3.9004777-.8041003 5.3379777-.3082007m.5800159 2.771059c-1.8813694.0407643-4.2197452.0032643-6.0079618-.1467755 1.057723-1.1361067 4.7878185-.4215764 6.0079618.1467755"/>
        <path d="M731.9729299 295.4172478c-.0879777 2.0963376.2062102 5.45816082.3045383 7.65728503 1.3937101.00187102 1.991242-.30493631 3.031449-.65573249.1174363-2.58757964-.8192675-4.98156844-1.089172-7.34430734-.5505573-.1469347-1.5613057.388137-2.2468153.3427548zm-21.7014729-11.922293c.9190287 8.4486465 2.2501194 15.5507962 4.6915207 23.03224124 5.4185112 1.64522692 11.9506369 1.78860271 16.7400478.30400876-.879379-4.22255573-.495223-9.3633201-1.0091561-13.869371-.3873407-3.3868631-.1898885-6.794586-.7209395-10.25-5.8033439-1.2073249-14.0061703-.2822452-19.7014729.783121zm21.0736863-.7300955c-.048965 3.6285031.1624204 7.2077229.4394905 10.8407643 1.3933121-.2091561 2.3387738-.3488057 3.6333598-.6326035-.4203821-3.4975717-.3686305-7.4332006-1.2249204-10.5271099-.9896496.0094745-1.8610668-.0115048-2.8479299.3189491zm7.0680733-.5848727c-.6612262-.1515923-1.4311306-.0058917-2.0628981.0063695.2969745 2.9578423 1.0175159 6.2217356 1.2710987 9.3265127.9940287.0309315 1.5250796-.4378981 2.3427548-.5955812.0437898-2.7253583-.2380574-6.4801353-1.5509554-8.737301zm10.7022293 9.7782246c2.0720541-.5031847 3.375-3.0410032 2.7953821-5.6472532-.3889331-1.7515924-1.0816083-5.0498408-1.8228503-6.1703822-.5477707-.8288216-2.0330414-1.9139331-3.218949-1.1544586-1.9291402 1.2353105-5.3276274 1.5939093-6.7344746 3.0892118.7054141 2.3487261.9243631 5.574801 1.2153663 8.550836 2.4100318.1502388 5.3753981-.6632166 7.3797771.2-1.3992835.4532643-3.2149682.4568471-4.423965 1.1174363.9880573.4772293 3.3013535.3808121 4.8097134.0146099zm-19.2687102-12.6010749c-1.455414-3.4227707-2.7770701-6.9696656-4.9502389-9.727707-2.1054538 1.4120223-4.4240048 2.740008-5.0157245 5.3041003 3.0137341 1.7050956 6.5272691 3.3870223 9.9659634 4.4236067zm3.5875796-10.5991242c-.1377389 3.4230892-.5282643 7.9132564-1.4406847 10.5960191 2.1763535-2.7712181 3.9315286-5.9980891 5.7659235-9.1398885-.7818471-1.2550955-2.4164012-2.3494427-4.3252388-1.4561306zm-4.066879-1.4450637c-.8244427-.0887739-1.5242834.9478504-2.5963376.4996019-.245621.2714969-.468949.5656848-.7193471.8308121 2.3678344 2.853543 3.4438694 6.9020701 5.2726911 10.2554937.9812898-3.221258.8682325-6.7503981 1.0843949-10.2662421-1.348328.0855892-2.0963376-1.2193471-3.0414013-1.3196656zm-2.6150478-3.4514331c-.0879777.9773089.1393312 1.2969745.3359873 2.4171975 3.2125796 1.0043789 2.651672-4.4092357-.3359873-2.4171975zm-3.5625-1.169586c-1.3842754-.7563694-3.4638137-1.5800159-5.2517914-1.9211783-2.216242-.423965-2.0086385 3.0230892-1.91457 5.0796178.0738455 1.6281847.9205812 3.3499204 1.288336 4.4315685.1726114.5050955.2115047 1.0409634.6433121 1.141242.7632165.1779061 3.2808121-.8288216 3.9981687-1.2200637 1.5171975-.8272691 2.6943472-2.1409633 3.9829618-3.023129.0167198-.4291401.0330414-.8578821.0501593-1.2870222-.7746816-.3861465-1.6699841-.6600319-2.8073249-.709793.7714968-.388137 1.9064491-.3825637 2.6094745-.8443472.0067676-.1719745.0139332-.3435509.0199045-.5139331-1.2834395-.0987261-1.7726911-.6703822-2.6186306-1.1329618zm-13.2219745-2.4016719c-1.1488853 1.1664012 3.2223328 2.7563694 4.6140924 2.8419585-.0077628-.7380573.420621-1.4339171.3343153-1.9633757-1.6529857-.2902071-3.8253583-.0987262-4.9484077-.8785828zm14.152707.5477707c-.0055732.1138535-.1540605.0724522-.1783439.165207 1.4781051 1.1552547 2.576035 1.3941082 4.5879777 1.2945859.9072452-.6584394 1.7117834-1.4283439 2.656449-2.044984-2.1747611.1942675-4.9124204 1.544984-7.0660828.5851911zm12.9904459 3.9390923c-.0621019-1.2957802-.4024682-3.9605892-1.2034236-4.4271497-1.6811306-.9812898-4.669586 1.9812898-5.9355095 2.433121.1377388.3964969.3650477.7105892.3825637 1.2173567.7488057-.1843153 1.6604299-.058121 2.3093152.2607484-.7503981.0839969-1.5824044.0784236-2.0788216.4359077-.1819268.5258758.044586 1.2424363-.0764331 1.9725318 1.7810509.5023886 3.8152866.7699045 6.0668789.8359873.4378981-.5692675.5871816-1.6536624.53543-2.7285032zm-29.0773089-3.3586783c-.3607883-.2571656-2.8013934-3.432723-3.1357484-3.3009555-4.4162819 1.7416402-8.5457007 4.7531848-12.23578826 7.6015128 3.51827226 7.5494029 4.93849526 16.7986067 5.18945066 25.7132962 4.0303344 1.8850318 7.5703821 4.6024681 13.0394506 4.8862261-.6328822-4.477707-1.2105892-8.4726115-1.5698248-12.6882962-1.374164-.5792596-3.3456609.0262739-4.6316481-.1796178-.0109077-1.5497214 1.9640127-.6786226 2.1285032-1.7207803.1239649-.7882564-1.0866242-.8479697-.6924363-2.0892118 1.0053344.3654459 1.5332802 1.1726513 2.6054538 1.4757564.9796974-2.1433121-.0136943-5.9355892.1275079-7.7269904.0267516-.3363456.1679539-1.8634157.9213774-1.5954618.6667994.2371417-.0380971 4.0612659.0349921 5.7567277.0665605 1.5620621-.1886545 3.073527.443949 4.0541401 5.284793-.7193471 10.6550956-1.1843153 16.3731688-1.3412022-1.2579618-.5397691-2.7523885-1.0505972-4.3908439-1.9741242-.8882166-.5007166-3.6880574-1.5425956-3.9443472-2.3862261-.408957-1.3443074 1.0729698-2.0603902 1.3264331-3.2128583-2.6676353 1.4548965-3.1880971-1.3945462-3.819148-3.4132564-.5717755-1.8284236-.8972532-3.1942675-1.0375399-4.2488057-2.2980095-1.0955414-4.7549761-2.2050159-6.7329617-3.6098726zm26.7433121-2.9167994c3.6795382-1.7842357 4.3427547 6.6683917 2.9004777 9.3913217.2229299.8121019.9896497 1.1230095 1.3025477 1.8531051-2.0533439 3.6783041-4.3339968 7.1118232-6.4291401 10.746855 1.5585191-.9701831 3.7846338-.173527 5.6186306-.8997213.6703822-.2651274 1.1556529-1.7998009 1.6632165-3.027508 1.3960988-3.377707 2.8618631-7.6361066 3.5139332-10.8594347.147293-.7344745.5485668-2.334793.4585987-2.9884554-.1604299-1.1703821-1.7484076-2.0382165-2.5561306-2.7619427-1.4880573-1.3367834-2.4251592-2.5131369-3.9773089-3.7631369-.629379.9291401-1.9800955 1.553344-2.4948248 2.3089172zm-35.1583997-32.6305732c-1.7533042 1.9291401-1.3863058 5.5437898-1.1740446 8.1154458 3.1691481-1.9936306 7.3755175.1576433 7.3358678 3.5485669 1.5130574-.040207.5652468-1.8897293.2915605-3.0812102-.8944267-3.8917197 1.5068472-8.1198248.1088774-11.678742-2.7143312.2058121-4.9442675 1.3144904-6.5622611 3.0959395zm12.5452627-11.1966561c-3.9692277 1.125-9.05625 4.0091561-10.6873009 7.5748408 1.2629777-.1835191 2.1397293-.8204618 3.3856289-.8992835.4708599-.0306528 1.0877389.1974523 1.6289013.0628981 1.0784236-.2675159 1.9885749-2.6855095 2.8021497-3.5851911.7930733-.8785828 1.7462978-1.2539809 2.3986465-2.0549363.4191083-.2022293 1.0387739-.1882962 1.0625796-.8176751-.1816481-.1942675-.3729299-.3423567-.5906051-.2806529zm20.6621019 1.058121c-4.1198248-2.3244427-11.0931926-4.0728503-15.4755971-1.8881369-3.5361465 1.7631369-8.316043 4.6803344-9.9457006 8.3769904 1.5223726 3.5672771-.4509555 6.8359873-.5769109 10.4578026-.0668789 1.9271497.9073647 3.6094745.9820064 5.7074044-.5209395.8594746-2.1125398.9653663-3.2142914.9064491-.3708599-1.8558917-1.0201035-3.941879-2.9312102-4.1512739-2.7042197-.2957803-4.681449 1.9422771-4.8042994 4.2810509-.1453821 2.7503981 2.1125 7.3089172 5.3127787 6.9924364 1.2362659-.1222134 1.5399682-1.361465 2.8869427-1.3487262.7300557 1.4566083-1.1261545 1.9140128-1.3171178 2.9558121-.0497612.2691083.153941 1.3208599.2724124 1.8140924.5812898 2.401672 1.8771098 5.5099522 3.1525477 7.3383758 1.6187899 2.3192675 4.7991641 2.6687898 8.2207007 2.8960987.6111067-1.3164809 2.8623407-1.2082006 4.3292197-.8638535-1.7579618-.6962579-3.3923169-2.384156-4.7467755-3.8781847-1.5558121-1.714172-3.1318073-3.5529459-3.2114251-5.7933917 2.9400876 4.0788216 5.3690685 7.6409235 10.7152866 9.4351114 4.0453026 1.3566879 8.7698249-.6218152 11.8781051-2.8045382 1.2898089-.9072452 2.0597134-2.3467356 2.9765127-3.6644108 3.4303344-4.9343153 5.031051-11.9773089 4.6791402-18.803742-.1449045-2.8152867-.1385351-5.6210191-1.0832007-7.5151274-.9872611-1.9804937-4.3264331-3.7523886-6.2810509-1.9609873-.3622612-1.9259554 1.6253981-3.1170382 3.9601911-2.423965-1.664809-2.1484872-3.4120223-4.7300955-5.7782644-6.0652866zm7.6755574 63.5219745c3.2193471-1.6004379 9.2344745-4.3077627 11.2527866.0058918.7448248 1.5900477 1.6186306 4.277906 2.004379 5.9192675.544984 2.3156051-.5907644 7.1827229-2.9709395 7.9597532-2.1023089.6862261-4.5553344.6444267-7.0875796.1357484-.2981688-.2480096-.6301752-.6803344-.8622612-1.1309714-1.808121-.0701433-3.5011943.0970542-4.9295382.8403265.1353503 1.3371815-.7691083 1.5517914-1.6170382 1.8271895-.6285828 2.4923965 1.2575637 5.74725314.8061305 8.01994422-.3220541 1.61910828-2.3140923 1.86946656-3.7782643 2.17237262-.0477707.89976114.0640924 1.650832.1640128 2.41202229-.334793 1.23361067-1.8363854 1.93586385-3.2591561 2.10785032-4.6811306.56292356-11.7887341.81577269-16.2913615-.80333201-1.256449-3.08190685-2.2462579-6.8303543-3.2927945-10.34954224-4.3914013.4689889-7.9431131-1.8948248-11.2914013-3.4434713-1.1592755-.5374204-2.7629777-.8334793-3.1960589-1.75625-.4198647-.8933917-.2480494-2.6056131-.3522293-4.2230095-.2651274-4.1309714-.4921577-8.1154459-1.5830414-12.3451434-.489809-1.8980493-1.34355099-3.5728503-1.9391322-5.4017117-.55047771-1.6950239-1.51226115-3.7897692-1.76309714-5.4800558-.37193471-2.5051751 1.98702229-2.6445063 3.49542194-3.7300955 2.3317676-1.6787421 4.1620621-2.607086 6.6874204-4.1222134.7479698-.4486465 3.0035828-1.5843949 3.2601513-2.1074841.5100318-1.0370223-.8754777-2.4992038-1.2458997-3.3121019-.5859474-1.2854299-.8915207-2.3773885-.9754777-3.6457006-2.1184315-.334793-3.7243232-1.5955414-4.6943471-3.0171179-1.6046179-2.352707-2.7174363-6.705414-1.3291003-10.0163216.1088773-.2607484.651871-.7734873.7319665-1.173965.1580016-.7886146-.2973328-1.8371815-.3256369-2.6759554-.1458599-4.3033439.7281051-8.0111465 3.6251194-9.3089172 1.1760748-4.6851115 5.3853901-6.2428344 9.3511943-8.5712579 1.4824442-.870223 3.1166003-1.4263536 4.8042993-2.0473727 6.0542198-2.2281047 15.3431131-1.8085191 20.3677946 1.9916402 2.1305733 1.6114649 5.5362261 5.0139331 6.754379 7.4773089 3.2173567 6.5035828 2.9888535 17.3726114.7384554 25.2838376-.3025478 1.0621019-.741242 2.6234076-1.3539013 3.8992834-.4271496.8909236-1.754777 2.6735669-1.5935509 3.4601911.1660032.8132962 3.02707 2.9856688 3.6405255 3.5772293 1.1046974 1.0656847 3.2034235 2.4800955 3.3734076 3.8248407.1827229 1.4311306-.6305732 3.3889332-1.0425955 4.7699045-1.3773886 4.6086385-2.7213376 8.8686704-4.2830414 12.9773885z"/>
    </g>
</svg>
